<svg width="167" height="112" viewBox="0 0 167 112" fill="none" xmlns="http://www.w3.org/2000/svg">
<path d="M17.5157 91.8304C16.804 91.8304 16.1694 91.6762 15.6119 91.3678C15.0663 91.0475 14.6393 90.6146 14.3309 90.069C14.0225 89.5115 13.8683 88.8769 13.8683 88.1652C13.8683 87.4654 14.0225 86.8367 14.3309 86.2793C14.6393 85.7218 15.0663 85.2888 15.6119 84.9804C16.1694 84.6602 16.804 84.5001 17.5157 84.5001C18.2155 84.5001 18.8382 84.6602 19.3838 84.9804C19.9413 85.2888 20.3743 85.7218 20.6826 86.2793C20.991 86.8367 21.1452 87.4654 21.1452 88.1652C21.1452 88.8769 20.991 89.5115 20.6826 90.069C20.3743 90.6146 19.9413 91.0475 19.3838 91.3678C18.8382 91.6762 18.2155 91.8304 17.5157 91.8304ZM17.5157 91.1009C18.3697 91.1009 19.0576 90.8281 19.5795 90.2825C20.1014 89.7368 20.3624 89.0311 20.3624 88.1652C20.3624 87.3112 20.1014 86.6114 19.5795 86.0658C19.0576 85.5201 18.3697 85.2473 17.5157 85.2473C16.6498 85.2473 15.9559 85.5201 15.434 86.0658C14.9121 86.6114 14.6512 87.3112 14.6512 88.1652C14.6512 89.0311 14.9121 89.7368 15.434 90.2825C15.9559 90.8281 16.6498 91.1009 17.5157 91.1009ZM16.0389 90.0334V86.2259H17.8181C18.2096 86.2259 18.5239 86.3326 18.7611 86.5461C18.9983 86.7596 19.117 87.0503 19.117 87.418C19.117 87.9992 18.8382 88.3728 18.2807 88.5388L19.2771 90.0334H18.174L17.3022 88.5922H16.9819V90.0334H16.0389ZM16.9819 87.8805H17.6936C17.8241 87.8805 17.9368 87.8509 18.0316 87.7916C18.1265 87.7204 18.174 87.6077 18.174 87.4535C18.174 87.3112 18.1265 87.2104 18.0316 87.1511C17.9368 87.0918 17.8241 87.0621 17.6936 87.0621H16.9819V87.8805ZM27.7427 97.168V84.7136H32.4398C33.7327 84.7136 34.7113 85.016 35.3755 85.621C36.0397 86.2259 36.3719 86.985 36.3719 87.8983C36.3719 88.693 36.1584 89.3276 35.7313 89.8021C35.3043 90.2647 34.7884 90.579 34.1834 90.7451C34.6579 90.8399 35.079 91.0297 35.4467 91.3144C35.8262 91.5991 36.1228 91.9549 36.3363 92.3819C36.5498 92.8089 36.6565 93.2715 36.6565 93.7697C36.6565 94.4102 36.4964 94.9914 36.1761 95.5133C35.8678 96.0234 35.4111 96.4266 34.8062 96.7232C34.2012 97.0197 33.4599 97.168 32.5822 97.168H27.7427ZM29.6287 90.0512H32.2085C32.9321 90.0512 33.4836 89.8851 33.8632 89.553C34.2427 89.209 34.4325 88.7405 34.4325 88.1474C34.4325 87.5662 34.2427 87.1036 33.8632 86.7596C33.4955 86.4157 32.9321 86.2437 32.1729 86.2437H29.6287V90.0512ZM29.6287 95.6201H32.3331C33.0922 95.6201 33.6793 95.4421 34.0945 95.0863C34.5215 94.7305 34.735 94.2323 34.735 93.5918C34.735 92.9513 34.5156 92.4472 34.0767 92.0795C33.6378 91.6999 33.0448 91.5101 32.2975 91.5101H29.6287V95.6201ZM41.6416 97.3815C40.8944 97.3815 40.2776 97.2569 39.7913 97.0078C39.3049 96.7588 38.9432 96.4326 38.7059 96.0293C38.4687 95.6141 38.3501 95.1634 38.3501 94.6771C38.3501 93.8231 38.6822 93.147 39.3465 92.6488C40.0107 92.1506 40.9596 91.9015 42.1932 91.9015H44.5061V91.7414C44.5061 91.0535 44.3164 90.5375 43.9368 90.1935C43.5691 89.8495 43.0887 89.6775 42.4956 89.6775C41.9737 89.6775 41.5171 89.808 41.1257 90.069C40.7461 90.318 40.5148 90.6917 40.4318 91.1899H38.5458C38.6051 90.5493 38.8186 90.0037 39.1863 89.553C39.5659 89.0904 40.0403 88.7405 40.6097 88.5033C41.1909 88.2542 41.8255 88.1296 42.5134 88.1296C43.747 88.1296 44.7019 88.4558 45.3779 89.1082C46.054 89.7487 46.3921 90.6264 46.3921 91.7414V97.168H44.7552L44.5951 95.6556C44.346 96.142 43.9842 96.5512 43.5098 96.8833C43.0353 97.2154 42.4126 97.3815 41.6416 97.3815ZM42.0153 95.8514C42.5253 95.8514 42.9523 95.7327 43.2963 95.4955C43.6521 95.2464 43.9249 94.9202 44.1147 94.517C44.3164 94.1137 44.4409 93.6689 44.4883 93.1826H42.3889C41.6416 93.1826 41.1079 93.313 40.7876 93.574C40.4792 93.8349 40.325 94.1611 40.325 94.5525C40.325 94.9558 40.4733 95.2761 40.7698 95.5133C41.0782 95.7387 41.4934 95.8514 42.0153 95.8514ZM52.1181 97.168C51.2522 97.168 50.5642 96.9604 50.0542 96.5452C49.5441 96.1182 49.2891 95.365 49.2891 94.2857V89.9266H47.7768V88.3431H49.2891L49.5204 86.1013H51.1751V88.3431H53.666V89.9266H51.1751V94.2857C51.1751 94.772 51.2759 95.11 51.4775 95.2998C51.691 95.4777 52.0528 95.5667 52.5629 95.5667H53.577V97.168H52.1181ZM58.5996 97.3815C57.8524 97.3815 57.2356 97.2569 56.7493 97.0078C56.2629 96.7588 55.9012 96.4326 55.6639 96.0293C55.4267 95.6141 55.3081 95.1634 55.3081 94.6771C55.3081 93.8231 55.6402 93.147 56.3045 92.6488C56.9687 92.1506 57.9176 91.9015 59.1512 91.9015H61.4641V91.7414C61.4641 91.0535 61.2744 90.5375 60.8948 90.1935C60.5271 89.8495 60.0467 89.6775 59.4536 89.6775C58.9317 89.6775 58.4751 89.808 58.0837 90.069C57.7041 90.318 57.4728 90.6917 57.3898 91.1899H55.5038C55.5631 90.5493 55.7766 90.0037 56.1443 89.553C56.5239 89.0904 56.9983 88.7405 57.5677 88.5033C58.1489 88.2542 58.7835 88.1296 59.4714 88.1296C60.705 88.1296 61.6598 88.4558 62.3359 89.1082C63.012 89.7487 63.3501 90.6264 63.3501 91.7414V97.168H61.7132L61.5531 95.6556C61.304 96.142 60.9422 96.5512 60.4678 96.8833C59.9933 97.2154 59.3706 97.3815 58.5996 97.3815ZM58.9733 95.8514C59.4833 95.8514 59.9103 95.7327 60.2543 95.4955C60.6101 95.2464 60.8829 94.9202 61.0727 94.517C61.2744 94.1137 61.3989 93.6689 61.4463 93.1826H59.3469C58.5996 93.1826 58.0659 93.313 57.7456 93.574C57.4372 93.8349 57.283 94.1611 57.283 94.5525C57.283 94.9558 57.4313 95.2761 57.7278 95.5133C58.0362 95.7387 58.4514 95.8514 58.9733 95.8514ZM69.0761 97.168C68.2102 97.168 67.5222 96.9604 67.0122 96.5452C66.5021 96.1182 66.2471 95.365 66.2471 94.2857V89.9266H64.7348V88.3431H66.2471L66.4784 86.1013H68.1331V88.3431H70.624V89.9266H68.1331V94.2857C68.1331 94.772 68.2339 95.11 68.4355 95.2998C68.6491 95.4777 69.0108 95.5667 69.5209 95.5667H70.535V97.168H69.0761ZM75.5576 97.3815C74.8104 97.3815 74.1936 97.2569 73.7073 97.0078C73.2209 96.7588 72.8592 96.4326 72.6219 96.0293C72.3847 95.6141 72.2661 95.1634 72.2661 94.6771C72.2661 93.8231 72.5982 93.147 73.2625 92.6488C73.9267 92.1506 74.8756 91.9015 76.1092 91.9015H78.4221V91.7414C78.4221 91.0535 78.2324 90.5375 77.8528 90.1935C77.4851 89.8495 77.0047 89.6775 76.4116 89.6775C75.8897 89.6775 75.4331 89.808 75.0417 90.069C74.6621 90.318 74.4308 90.6917 74.3478 91.1899H72.4618C72.5211 90.5493 72.7346 90.0037 73.1023 89.553C73.4819 89.0904 73.9563 88.7405 74.5257 88.5033C75.1069 88.2542 75.7415 88.1296 76.4294 88.1296C77.663 88.1296 78.6178 88.4558 79.2939 89.1082C79.97 89.7487 80.3081 90.6264 80.3081 91.7414V97.168H78.6712L78.5111 95.6556C78.262 96.142 77.9002 96.5512 77.4258 96.8833C76.9513 97.2154 76.3286 97.3815 75.5576 97.3815ZM75.9313 95.8514C76.4413 95.8514 76.8683 95.7327 77.2123 95.4955C77.5681 95.2464 77.8409 94.9202 78.0307 94.517C78.2324 94.1137 78.3569 93.6689 78.4043 93.1826H76.3049C75.5576 93.1826 75.0239 93.313 74.7036 93.574C74.3952 93.8349 74.241 94.1611 74.241 94.5525C74.241 94.9558 74.3893 95.2761 74.6858 95.5133C74.9942 95.7387 75.4094 95.8514 75.9313 95.8514ZM87.471 97.3815C86.7831 97.3815 86.1722 97.2451 85.6385 96.9723C85.1166 96.6994 84.7014 96.314 84.393 95.8158L84.1973 97.168H82.5071V84.3577H84.393V89.7131C84.6777 89.298 85.0691 88.9303 85.5673 88.61C86.0655 88.2898 86.706 88.1296 87.4888 88.1296C88.3428 88.1296 89.096 88.3313 89.7484 88.7346C90.4008 89.1378 90.9108 89.6894 91.2785 90.3892C91.6581 91.089 91.8479 91.8837 91.8479 92.7733C91.8479 93.6629 91.6581 94.4577 91.2785 95.1575C90.9108 95.8454 90.4008 96.3911 89.7484 96.7943C89.096 97.1858 88.3369 97.3815 87.471 97.3815ZM87.1508 95.7446C87.9573 95.7446 88.6216 95.4718 89.1435 94.9262C89.6654 94.3687 89.9263 93.6452 89.9263 92.7556C89.9263 92.1743 89.8077 91.6584 89.5705 91.2076C89.3333 90.7569 89.0071 90.407 88.5919 90.1579C88.1768 89.897 87.6964 89.7665 87.1508 89.7665C86.3442 89.7665 85.68 90.0452 85.1581 90.6027C84.648 91.1602 84.393 91.8778 84.393 92.7556C84.393 93.6452 84.648 94.3687 85.1581 94.9262C85.68 95.4718 86.3442 95.7446 87.1508 95.7446ZM94.9552 86.6707C94.5994 86.6707 94.3028 86.5639 94.0656 86.3504C93.8402 86.1251 93.7276 85.8463 93.7276 85.5142C93.7276 85.1821 93.8402 84.9093 94.0656 84.6958C94.3028 84.4704 94.5994 84.3577 94.9552 84.3577C95.311 84.3577 95.6017 84.4704 95.827 84.6958C96.0642 84.9093 96.1829 85.1821 96.1829 85.5142C96.1829 85.8463 96.0642 86.1251 95.827 86.3504C95.6017 86.5639 95.311 86.6707 94.9552 86.6707ZM94.0122 97.168V88.3431H95.8982V97.168H94.0122ZM102.089 97.168C101.223 97.168 100.535 96.9604 100.025 96.5452C99.5146 96.1182 99.2596 95.365 99.2596 94.2857V89.9266H97.7473V88.3431H99.2596L99.4909 86.1013H101.146V88.3431H103.636V89.9266H101.146V94.2857C101.146 94.772 101.246 95.11 101.448 95.2998C101.662 95.4777 102.023 95.5667 102.533 95.5667H103.547V97.168H102.089ZM109.886 97.168V95.8158C110.692 95.1753 111.463 94.5288 112.199 93.8764C112.934 93.2241 113.587 92.5836 114.156 91.9549C114.737 91.3144 115.194 90.6917 115.526 90.0868C115.858 89.47 116.024 88.8769 116.024 88.3076C116.024 87.928 115.959 87.5721 115.828 87.24C115.698 86.8961 115.484 86.6232 115.188 86.4216C114.891 86.2081 114.494 86.1013 113.996 86.1013C113.249 86.1013 112.685 86.3386 112.306 86.813C111.938 87.2875 111.76 87.8568 111.772 88.5211H109.939C109.951 87.6433 110.135 86.9079 110.491 86.3148C110.859 85.7218 111.345 85.2711 111.95 84.9627C112.567 84.6543 113.26 84.5001 114.031 84.5001C115.206 84.5001 116.143 84.8322 116.843 85.4964C117.554 86.1488 117.91 87.0621 117.91 88.2364C117.91 88.9362 117.738 89.6301 117.394 90.318C117.062 91.006 116.623 91.6702 116.078 92.3108C115.544 92.9394 114.968 93.5325 114.352 94.09C113.735 94.6474 113.148 95.1515 112.59 95.6023H118.284V97.168H109.886ZM125.159 97.3815C124.033 97.3815 123.06 97.1146 122.242 96.5808C121.435 96.0352 120.812 95.282 120.373 94.3212C119.946 93.3486 119.733 92.2218 119.733 90.9408C119.733 89.6597 119.946 88.5388 120.373 87.5781C120.812 86.6055 121.435 85.8523 122.242 85.3185C123.06 84.7729 124.033 84.5001 125.159 84.5001C126.286 84.5001 127.253 84.7729 128.06 85.3185C128.866 85.8523 129.483 86.6055 129.91 87.5781C130.349 88.5388 130.568 89.6597 130.568 90.9408C130.568 92.2218 130.349 93.3486 129.91 94.3212C129.483 95.282 128.866 96.0352 128.06 96.5808C127.253 97.1146 126.286 97.3815 125.159 97.3815ZM125.159 95.6912C125.836 95.6912 126.435 95.5015 126.956 95.1219C127.49 94.7423 127.905 94.1967 128.202 93.485C128.498 92.7733 128.647 91.9253 128.647 90.9408C128.647 89.9563 128.498 89.1082 128.202 88.3965C127.905 87.6848 127.49 87.1392 126.956 86.7596C126.435 86.3801 125.836 86.1903 125.159 86.1903C124.472 86.1903 123.867 86.3801 123.345 86.7596C122.823 87.1392 122.414 87.6848 122.117 88.3965C121.821 89.1082 121.672 89.9563 121.672 90.9408C121.672 91.9253 121.821 92.7733 122.117 93.485C122.414 94.1967 122.823 94.7423 123.345 95.1219C123.867 95.5015 124.472 95.6912 125.159 95.6912ZM132.282 97.168V95.8158C133.089 95.1753 133.86 94.5288 134.595 93.8764C135.331 93.2241 135.983 92.5836 136.552 91.9549C137.134 91.3144 137.59 90.6917 137.922 90.0868C138.254 89.47 138.421 88.8769 138.421 88.3076C138.421 87.928 138.355 87.5721 138.225 87.24C138.094 86.8961 137.881 86.6232 137.584 86.4216C137.288 86.2081 136.89 86.1013 136.392 86.1013C135.645 86.1013 135.082 86.3386 134.702 86.813C134.334 87.2875 134.156 87.8568 134.168 88.5211H132.336C132.348 87.6433 132.531 86.9079 132.887 86.3148C133.255 85.7218 133.741 85.2711 134.346 84.9627C134.963 84.6543 135.657 84.5001 136.428 84.5001C137.602 84.5001 138.539 84.8322 139.239 85.4964C139.951 86.1488 140.306 87.0621 140.306 88.2364C140.306 88.9362 140.134 89.6301 139.79 90.318C139.458 91.006 139.02 91.6702 138.474 92.3108C137.94 92.9394 137.365 93.5325 136.748 94.09C136.131 94.6474 135.544 95.1515 134.987 95.6023H140.68V97.168H132.282ZM147.556 97.3815C146.429 97.3815 145.456 97.1146 144.638 96.5808C143.831 96.0352 143.209 95.282 142.77 94.3212C142.343 93.3486 142.129 92.2218 142.129 90.9408C142.129 89.6597 142.343 88.5388 142.77 87.5781C143.209 86.6055 143.831 85.8523 144.638 85.3185C145.456 84.7729 146.429 84.5001 147.556 84.5001C148.683 84.5001 149.649 84.7729 150.456 85.3185C151.263 85.8523 151.879 86.6055 152.306 87.5781C152.745 88.5388 152.965 89.6597 152.965 90.9408C152.965 92.2218 152.745 93.3486 152.306 94.3212C151.879 95.282 151.263 96.0352 150.456 96.5808C149.649 97.1146 148.683 97.3815 147.556 97.3815ZM147.556 95.6912C148.232 95.6912 148.831 95.5015 149.353 95.1219C149.887 94.7423 150.302 94.1967 150.598 93.485C150.895 92.7733 151.043 91.9253 151.043 90.9408C151.043 89.9563 150.895 89.1082 150.598 88.3965C150.302 87.6848 149.887 87.1392 149.353 86.7596C148.831 86.3801 148.232 86.1903 147.556 86.1903C146.868 86.1903 146.263 86.3801 145.741 86.7596C145.219 87.1392 144.81 87.6848 144.513 88.3965C144.217 89.1082 144.069 89.9563 144.069 90.9408C144.069 91.9253 144.217 92.7733 144.513 93.485C144.81 94.1967 145.219 94.7423 145.741 95.1219C146.263 95.5015 146.868 95.6912 147.556 95.6912Z" fill="#FFE9D5"/>
<path d="M75.2961 45.1112C58.5553 49.5531 31.5167 45.0135 31.2765 25.2311C31.0364 5.44845 59.8933 17.2327 59.8933 17.2327L75.2961 45.1112Z" fill="#FFC250"/>
<path d="M39.416 14.1319C51.0997 12.4234 59.9733 25.635 69.7909 39.4165C79.6084 53.198 105.173 58.6606 121.508 47.071C137.843 35.4815 144.756 15.1835 124.7 3.07617C104.643 -9.0312 92.1233 18.4563 74.8569 19.2119C57.5909 19.9675 57.4649 9.01535 39.416 14.1319Z" fill="#FFD064"/>
<ellipse cx="123.008" cy="25.847" rx="5.12766" ry="4.3756" fill="#FFE19D"/>
<ellipse cx="113.18" cy="29.1287" rx="3.84575" ry="3.2817" fill="#FFE19D"/>
<ellipse cx="120.017" cy="33.5042" rx="2.99114" ry="2.55244" fill="#FFE19D"/>
</svg>
